<?xml version="1.0" encoding="UTF-8"?>
<!DOCTYPE svg PUBLIC "-//W3C//DTD SVG 1.1//EN" "http://www.w3.org/Graphics/SVG/1.1/DTD/svg11.dtd">
<!-- Creator: CorelDRAW 2019 (64-Bit) -->
<svg xmlns="http://www.w3.org/2000/svg" xml:space="preserve" width="11in" height="8.5in" version="1.1" style="shape-rendering:geometricPrecision; text-rendering:geometricPrecision; image-rendering:optimizeQuality; fill-rule:evenodd; clip-rule:evenodd"
viewBox="0 0 11000 8500"
 xmlns:xlink="http://www.w3.org/1999/xlink"
 xmlns:xodm="http://www.corel.com/coreldraw/odm/2003">
 <defs>
  <style type="text/css">
   <![CDATA[
    .fil0 {fill:#010647}
    .fil1 {fill:#FEFEFE;fill-rule:nonzero}
    .fil2 {fill:#282829;fill-rule:nonzero}
   ]]>
  </style>
 </defs>
 <g id="Layer_x0020_1">
  <metadata id="CorelCorpID_0Corel-Layer"/>
  <rect class="fil0" x="843" y="2833.33" width="2698.41" height="2833.33" rx="524.54" ry="550.76"/>
  <path class="fil1" d="M1552.14 3791.67l193.76 0 0 748.3 494.41 0 0 168.37 -688.17 0 0 -916.67zm688.17 0l525.15 0c48.11,0 91.76,9.58 130.95,28.73 39.2,19.15 69.93,45.88 92.2,80.17 22.27,34.3 33.41,73.72 33.41,118.26 0,50.78 -14.03,94.65 -42.09,131.62 -28.06,36.97 -63.92,62.58 -107.57,76.83l0 5.34c51.67,9.8 93.76,34.97 126.28,75.5 32.52,40.53 48.77,88.42 48.77,143.65 0,82.85 -26.5,146.32 -79.5,190.42 -53.01,44.1 -120.49,66.15 -202.44,66.15l-525.15 0 0 -916.67zm470.36 366.13c35.63,0 63.25,-9.13 82.85,-27.39 19.6,-18.26 29.4,-41.65 29.4,-70.15 0,-33.85 -9.13,-59.69 -27.39,-77.5 -18.26,-17.82 -43.43,-26.72 -75.5,-26.72l-284.62 0 0 201.77 275.27 0zm22.72 386.18c33.85,0 61.47,-9.8 82.85,-29.4 21.38,-19.6 32.07,-47.66 32.07,-84.19 0,-32.96 -10.69,-59.69 -32.07,-80.18 -21.38,-20.49 -52.56,-30.73 -93.54,-30.73l-287.3 0 0 224.49 297.98 0z"/>
  <path class="fil2" d="M3803.83 3777.44l151.88 0 0 807.28 488.47 0 0 131.35 -640.35 0 0 -938.63zm557.02 0l727.92 0 0 129.98 -576.04 0 0 264.08 515.84 0 0 129.98 -515.84 0 0 284.6 584.25 0 0 129.98 -736.13 0 0 -938.63zm654.72 0l727.92 0 0 129.98 -576.04 0 0 264.08 515.84 0 0 129.98 -515.84 0 0 284.6 584.25 0 0 129.98 -736.13 0 0 -938.63zm736.13 0l361.22 0c147.78,0 261.8,38.77 342.07,116.3 80.27,77.54 120.41,195.2 120.41,353.01 0,157.81 -40.13,275.48 -120.41,353.02 -80.27,77.54 -194.3,116.3 -342.07,116.3l-361.22 0 0 -938.63zm361.22 808.65c99.43,0 175.37,-26.69 227.82,-80.05 52.44,-53.36 78.68,-137.06 78.68,-251.07l0 -15.05c0,-114.94 -26.23,-199.09 -78.68,-252.45 -52.44,-53.36 -128.39,-80.04 -227.82,-80.04l-209.34 0 0 678.67 209.34 0zm615.15 -808.65l537.73 0c49.26,0 93.96,9.81 134.09,29.42 40.13,19.61 71.61,46.98 94.41,82.09 22.8,35.12 34.21,75.48 34.21,121.09 0,51.99 -14.37,96.92 -43.1,134.78 -28.73,37.85 -65.45,64.08 -110.15,78.67l0 5.47c52.91,10.04 96.01,35.8 129.3,77.31 33.3,41.5 49.94,90.54 49.94,147.09 0,84.83 -27.14,149.83 -81.41,194.98 -54.27,45.15 -123.37,67.73 -207.29,67.73l-537.73 0 0 -938.63zm481.63 374.91c36.48,0 64.77,-9.35 84.83,-28.05 20.07,-18.7 30.1,-42.65 30.1,-71.83 0,-34.67 -9.35,-61.12 -28.05,-79.36 -18.7,-18.24 -44.48,-27.37 -77.31,-27.37l-291.44 0 0 206.61 281.87 0zm23.26 395.43c34.66,0 62.94,-10.03 84.83,-30.1 21.89,-20.07 32.84,-48.8 32.84,-86.2 0,-33.75 -10.95,-61.11 -32.84,-82.09 -21.89,-20.98 -53.82,-31.47 -95.78,-31.47l-294.18 0 0 229.87 305.13 0zm625.34 -770.33l249.03 0 366.7 938.63 -216.19 0 -67.04 -179.24 -426.9 0 -67.05 179.24 -205.24 0 366.7 -938.63zm269.55 593.83l-88.94 -238.08c-7.17,-19.2 -17.79,-51.08 -31.47,-95.78 -13.68,-44.7 -22.8,-74.34 -27.37,-88.94l-6.84 0c-4.56,14.6 -13.69,44.25 -27.37,88.94 -13.68,44.69 -24.31,76.59 -31.47,95.78l-88.94 238.08 302.39 0zm346.17 -593.83l192.93 0 361.22 510.37c7.17,10.12 17.33,26 30.1,47.89 12.77,21.89 20.98,36.48 24.63,43.78l6.84 -4.11c0,-7.3 -0.69,-19.16 -2.06,-35.57 -1.36,-16.41 -2.05,-31.01 -2.05,-43.78l0 -518.57 192.93 0 0 938.63 -192.93 0 -362.59 -514.47c-10.93,-15.52 -21.89,-33.07 -32.84,-52.68 -10.94,-19.61 -17.79,-32.15 -20.52,-37.63l-6.84 4.11c0,6.38 0.69,17.79 2.05,34.2 1.37,16.42 2.06,32.39 2.06,47.89l0 518.57 -192.93 0 0 -938.63zm804.54 0l198.4 0 0 452.9 433.74 -452.9 240.81 0 -366.7 381.75 372.17 556.89 -235.34 0 -269.55 -417.32 -175.14 145.04 0 272.29 -198.4 0 0 -938.63z"/>
 </g>
</svg>
