<?xml version="1.0" encoding="UTF-8"?>
<!DOCTYPE svg PUBLIC "-//W3C//DTD SVG 1.1//EN" "http://www.w3.org/Graphics/SVG/1.1/DTD/svg11.dtd">
<!-- Creator: CorelDRAW 2019 (64-Bit) -->
<svg xmlns="http://www.w3.org/2000/svg" xml:space="preserve" width="11in" height="8.5in" version="1.1" style="shape-rendering:geometricPrecision; text-rendering:geometricPrecision; image-rendering:optimizeQuality; fill-rule:evenodd; clip-rule:evenodd"
viewBox="0 0 11000 8500"
 xmlns:xlink="http://www.w3.org/1999/xlink"
 xmlns:xodm="http://www.corel.com/coreldraw/odm/2003">
 <defs>
  <style type="text/css">
   <![CDATA[
    .fil0 {fill:#010647}
    .fil1 {fill:#FEFEFE;fill-rule:nonzero}
   ]]>
  </style>
 </defs>
 <g id="Layer_x0020_1">
  <metadata id="CorelCorpID_0Corel-Layer"/>
  <rect class="fil0" x="843" y="2833.33" width="2698.41" height="2833.33" rx="524.54" ry="550.76"/>
  <path class="fil1" d="M1552.14 3791.67l193.76 0 0 748.3 494.41 0 0 168.37 -688.17 0 0 -916.67zm688.17 0l525.15 0c48.11,0 91.76,9.58 130.95,28.73 39.2,19.15 69.93,45.88 92.2,80.17 22.27,34.3 33.41,73.72 33.41,118.26 0,50.78 -14.03,94.65 -42.09,131.62 -28.06,36.97 -63.92,62.58 -107.57,76.83l0 5.34c51.67,9.8 93.76,34.97 126.28,75.5 32.52,40.53 48.77,88.42 48.77,143.65 0,82.85 -26.5,146.32 -79.5,190.42 -53.01,44.1 -120.49,66.15 -202.44,66.15l-525.15 0 0 -916.67zm470.36 366.13c35.63,0 63.25,-9.13 82.85,-27.39 19.6,-18.26 29.4,-41.65 29.4,-70.15 0,-33.85 -9.13,-59.69 -27.39,-77.5 -18.26,-17.82 -43.43,-26.72 -75.5,-26.72l-284.62 0 0 201.77 275.27 0zm22.72 386.18c33.85,0 61.47,-9.8 82.85,-29.4 21.38,-19.6 32.07,-47.66 32.07,-84.19 0,-32.96 -10.69,-59.69 -32.07,-80.18 -21.38,-20.49 -52.56,-30.73 -93.54,-30.73l-287.3 0 0 224.49 297.98 0z"/>
 </g>
</svg>
